# xmcd
#
# Track frame offsets: 
#        150
#        34570
#        68895
#
# Disc length: 1201 seconds
#
# Revision: 0
# Processed by: cddbd v1.5.2PL0 Copyright (c) Steve Scherf et al.
# Submitted via: ExactAudioCopy v0.99pb5
#
DISCID=1e04af03
DTITLE=Nightmares On Wax - Happiness!
DYEAR=1992
DGENRE=House
TTITLE0=Happiness!
TTITLE1=Happiness! (Wooga Wooga Mix)
TTITLE2=Happiness! (Bone US Mix)
EXTD=
EXTT0=
EXTT1=
EXTT2=
PLAYORDER=
